<?xml version="1.0" encoding="UTF-8" standalone="no"?>
<!-- Created with Inkscape (http://www.inkscape.org/) -->

<svg
   xmlns:dc="http://purl.org/dc/elements/1.1/"
   xmlns:cc="http://creativecommons.org/ns#"
   xmlns:rdf="http://www.w3.org/1999/02/22-rdf-syntax-ns#"
   xmlns:svg="http://www.w3.org/2000/svg"
   xmlns="http://www.w3.org/2000/svg"
   xmlns:sodipodi="http://sodipodi.sourceforge.net/DTD/sodipodi-0.dtd"
   xmlns:inkscape="http://www.inkscape.org/namespaces/inkscape"
   width="110mm"
   height="120mm"
   viewBox="0 0 389.76378 425.19684"
   id="svg4284"
   version="1.1"
   inkscape:version="0.91 r13725"
   sodipodi:docname="fénymérő.svg">
  <sodipodi:namedview
     id="base"
     pagecolor="#ffffff"
     bordercolor="#666666"
     borderopacity="1.0"
     inkscape:pageopacity="0.0"
     inkscape:pageshadow="2"
     inkscape:zoom="0.35355339"
     inkscape:cx="-170.34867"
     inkscape:cy="509.97966"
     inkscape:document-units="mm"
     inkscape:current-layer="layer1"
     showgrid="true"
     inkscape:window-width="1366"
     inkscape:window-height="705"
     inkscape:window-x="-8"
     inkscape:window-y="-8"
     inkscape:window-maximized="1">
    <inkscape:grid
       type="xygrid"
       id="grid4832"
       units="mm"
       spacingx="3.5433071"
       spacingy="3.5433072"
       empspacing="10"
       dotted="false"
       enabled="true" />
  </sodipodi:namedview>
  <defs
     id="defs4286" />
  <metadata
     id="metadata4289">
    <rdf:RDF>
      <cc:Work
         rdf:about="">
        <dc:format>image/svg+xml</dc:format>
        <dc:type
           rdf:resource="http://purl.org/dc/dcmitype/StillImage" />
        <dc:title />
      </cc:Work>
    </rdf:RDF>
  </metadata>
  <g
     inkscape:label="1. réteg"
     inkscape:groupmode="layer"
     id="layer1"
     transform="translate(0,-627.16537)">
    <path
       id="path4846-5"
       d="m -96.82173,854.63072 a 100.8028,100.80277 0 0 1 -100.80278,100.8028 100.8028,100.80277 0 0 1 -100.8028,-100.8028 100.8028,100.80277 0 0 1 100.8028,-100.8028 100.8028,100.80277 0 0 1 100.80278,100.8028 z"
       style="color:#000000;clip-rule:nonzero;display:inline;overflow:visible;visibility:visible;opacity:1;isolation:auto;mix-blend-mode:normal;color-interpolation:sRGB;color-interpolation-filters:linearRGB;solid-color:#000000;solid-opacity:1;fill:none;fill-opacity:1;fill-rule:nonzero;stroke:#000000;stroke-width:0.36291239;stroke-linecap:round;stroke-linejoin:miter;stroke-miterlimit:4;stroke-dasharray:none;stroke-dashoffset:0;stroke-opacity:1;color-rendering:auto;image-rendering:auto;shape-rendering:auto;text-rendering:auto;enable-background:accumulate" />
    <rect
       style="color:#000000;clip-rule:nonzero;display:inline;overflow:visible;visibility:visible;opacity:1;isolation:auto;mix-blend-mode:normal;color-interpolation:sRGB;color-interpolation-filters:linearRGB;solid-color:#000000;solid-opacity:1;fill:none;fill-opacity:1;fill-rule:nonzero;stroke:#000000;stroke-width:0.61423528;stroke-linecap:round;stroke-linejoin:miter;stroke-miterlimit:4;stroke-dasharray:none;stroke-dashoffset:0;stroke-opacity:1;color-rendering:auto;image-rendering:auto;shape-rendering:auto;text-rendering:auto;enable-background:accumulate"
       id="rect4868-2"
       width="4.7007256"
       height="190.98395"
       x="-215.92108"
       y="759.8349" />
    <circle
       style="color:#000000;clip-rule:nonzero;display:inline;overflow:visible;visibility:visible;opacity:1;isolation:auto;mix-blend-mode:normal;color-interpolation:sRGB;color-interpolation-filters:linearRGB;solid-color:#000000;solid-opacity:1;fill:none;fill-opacity:1;fill-rule:nonzero;stroke:#000000;stroke-width:0.54755729;stroke-linecap:round;stroke-linejoin:miter;stroke-miterlimit:4;stroke-dasharray:none;stroke-dashoffset:0;stroke-opacity:1;color-rendering:auto;image-rendering:auto;shape-rendering:auto;text-rendering:auto;enable-background:accumulate"
       id="path4872-5"
       cx="-250.3091"
       cy="816.04559"
       r="33.387638" />
    <circle
       style="color:#000000;clip-rule:nonzero;display:inline;overflow:visible;visibility:visible;opacity:1;isolation:auto;mix-blend-mode:normal;color-interpolation:sRGB;color-interpolation-filters:linearRGB;solid-color:#000000;solid-opacity:1;fill:none;fill-opacity:1;fill-rule:nonzero;stroke:#000000;stroke-width:0.54755729;stroke-linecap:round;stroke-linejoin:miter;stroke-miterlimit:4;stroke-dasharray:none;stroke-dashoffset:0;stroke-opacity:1;color-rendering:auto;image-rendering:auto;shape-rendering:auto;text-rendering:auto;enable-background:accumulate"
       id="path4872-8-9"
       cx="-249.8217"
       cy="890.31586"
       r="33.387638" />
    <rect
       style="color:#000000;clip-rule:nonzero;display:inline;overflow:visible;visibility:visible;opacity:1;isolation:auto;mix-blend-mode:normal;color-interpolation:sRGB;color-interpolation-filters:linearRGB;solid-color:#000000;solid-opacity:1;fill:none;fill-opacity:1;fill-rule:nonzero;stroke:#000000;stroke-width:0.25221881;stroke-linecap:round;stroke-linejoin:miter;stroke-miterlimit:4;stroke-dasharray:none;stroke-dashoffset:0;stroke-opacity:1;color-rendering:auto;image-rendering:auto;shape-rendering:auto;text-rendering:auto;enable-background:accumulate"
       id="rect4870-4-6"
       width="78.486221"
       height="5.0627418"
       x="-176.23056"
       y="850.10175" />
    <circle
       style="color:#000000;clip-rule:nonzero;display:inline;overflow:visible;visibility:visible;opacity:1;isolation:auto;mix-blend-mode:normal;color-interpolation:sRGB;color-interpolation-filters:linearRGB;solid-color:#000000;solid-opacity:1;fill:none;fill-opacity:1;fill-rule:nonzero;stroke:#000000;stroke-width:0.54755729;stroke-linecap:round;stroke-linejoin:miter;stroke-miterlimit:4;stroke-dasharray:none;stroke-dashoffset:0;stroke-opacity:1;color-rendering:auto;image-rendering:auto;shape-rendering:auto;text-rendering:auto;enable-background:accumulate"
       id="path4872-3-1"
       cx="-144.38596"
       cy="817.10504"
       r="33.387638" />
    <circle
       style="color:#000000;clip-rule:nonzero;display:inline;overflow:visible;visibility:visible;opacity:1;isolation:auto;mix-blend-mode:normal;color-interpolation:sRGB;color-interpolation-filters:linearRGB;solid-color:#000000;solid-opacity:1;fill:none;fill-opacity:1;fill-rule:nonzero;stroke:#000000;stroke-width:0.54755729;stroke-linecap:round;stroke-linejoin:miter;stroke-miterlimit:4;stroke-dasharray:none;stroke-dashoffset:0;stroke-opacity:1;color-rendering:auto;image-rendering:auto;shape-rendering:auto;text-rendering:auto;enable-background:accumulate"
       id="path4872-8-8-1"
       cx="-143.89856"
       cy="888.8371"
       r="33.387638" />
    <rect
       style="color:#000000;clip-rule:nonzero;display:inline;overflow:visible;visibility:visible;opacity:1;isolation:auto;mix-blend-mode:normal;color-interpolation:sRGB;color-interpolation-filters:linearRGB;solid-color:#000000;solid-opacity:1;fill:none;fill-opacity:1;fill-rule:nonzero;stroke:#000000;stroke-width:0.29055119;stroke-linecap:round;stroke-linejoin:miter;stroke-miterlimit:4;stroke-dasharray:none;stroke-dashoffset:0;stroke-opacity:1;color-rendering:auto;image-rendering:auto;shape-rendering:auto;text-rendering:auto;enable-background:accumulate"
       id="rect4964-9-6"
       width="42.519684"
       height="42.519684"
       x="-270.23178"
       y="795.09052" />
    <rect
       style="color:#000000;clip-rule:nonzero;display:inline;overflow:visible;visibility:visible;opacity:1;isolation:auto;mix-blend-mode:normal;color-interpolation:sRGB;color-interpolation-filters:linearRGB;solid-color:#000000;solid-opacity:1;fill:none;fill-opacity:1;fill-rule:nonzero;stroke:#000000;stroke-width:0.29055119;stroke-linecap:round;stroke-linejoin:miter;stroke-miterlimit:4;stroke-dasharray:none;stroke-dashoffset:0;stroke-opacity:1;color-rendering:auto;image-rendering:auto;shape-rendering:auto;text-rendering:auto;enable-background:accumulate"
       id="rect4983-5-4"
       width="3.5433071"
       height="10.629921"
       x="-227.78935"
       y="810.78424" />
    <rect
       style="color:#000000;clip-rule:nonzero;display:inline;overflow:visible;visibility:visible;opacity:1;isolation:auto;mix-blend-mode:normal;color-interpolation:sRGB;color-interpolation-filters:linearRGB;solid-color:#000000;solid-opacity:1;fill:none;fill-opacity:1;fill-rule:nonzero;stroke:#000000;stroke-width:0.29055119;stroke-linecap:round;stroke-linejoin:miter;stroke-miterlimit:4;stroke-dasharray:none;stroke-dashoffset:0;stroke-opacity:1;color-rendering:auto;image-rendering:auto;shape-rendering:auto;text-rendering:auto;enable-background:accumulate"
       id="rect4964-9-4-5"
       width="42.519684"
       height="42.519684"
       x="-270.10025"
       y="866.49054" />
    <rect
       style="color:#000000;clip-rule:nonzero;display:inline;overflow:visible;visibility:visible;opacity:1;isolation:auto;mix-blend-mode:normal;color-interpolation:sRGB;color-interpolation-filters:linearRGB;solid-color:#000000;solid-opacity:1;fill:none;fill-opacity:1;fill-rule:nonzero;stroke:#000000;stroke-width:0.29055119;stroke-linecap:round;stroke-linejoin:miter;stroke-miterlimit:4;stroke-dasharray:none;stroke-dashoffset:0;stroke-opacity:1;color-rendering:auto;image-rendering:auto;shape-rendering:auto;text-rendering:auto;enable-background:accumulate"
       id="rect4983-5-1-3"
       width="3.5433071"
       height="10.629921"
       x="-227.65782"
       y="882.18427" />
    <rect
       style="color:#000000;clip-rule:nonzero;display:inline;overflow:visible;visibility:visible;opacity:1;isolation:auto;mix-blend-mode:normal;color-interpolation:sRGB;color-interpolation-filters:linearRGB;solid-color:#000000;solid-opacity:1;fill:none;fill-opacity:1;fill-rule:nonzero;stroke:#000000;stroke-width:0.29055119;stroke-linecap:round;stroke-linejoin:miter;stroke-miterlimit:4;stroke-dasharray:none;stroke-dashoffset:0;stroke-opacity:1;color-rendering:auto;image-rendering:auto;shape-rendering:auto;text-rendering:auto;enable-background:accumulate"
       id="rect4964-9-8-1"
       width="42.519684"
       height="42.519684"
       x="-167.45256"
       y="-908.65424"
       transform="scale(1,-1)" />
    <rect
       style="color:#000000;clip-rule:nonzero;display:inline;overflow:visible;visibility:visible;opacity:1;isolation:auto;mix-blend-mode:normal;color-interpolation:sRGB;color-interpolation-filters:linearRGB;solid-color:#000000;solid-opacity:1;fill:none;fill-opacity:1;fill-rule:nonzero;stroke:#000000;stroke-width:0.29055119;stroke-linecap:round;stroke-linejoin:miter;stroke-miterlimit:4;stroke-dasharray:none;stroke-dashoffset:0;stroke-opacity:1;color-rendering:auto;image-rendering:auto;shape-rendering:auto;text-rendering:auto;enable-background:accumulate"
       id="rect4983-5-15-45"
       width="3.5433071"
       height="10.629921"
       x="-170.91859"
       y="-892.45831"
       transform="scale(1,-1)" />
    <rect
       style="color:#000000;clip-rule:nonzero;display:inline;overflow:visible;visibility:visible;opacity:1;isolation:auto;mix-blend-mode:normal;color-interpolation:sRGB;color-interpolation-filters:linearRGB;solid-color:#000000;solid-opacity:1;fill:none;fill-opacity:1;fill-rule:nonzero;stroke:#000000;stroke-width:0.29055119;stroke-linecap:round;stroke-linejoin:miter;stroke-miterlimit:4;stroke-dasharray:none;stroke-dashoffset:0;stroke-opacity:1;color-rendering:auto;image-rendering:auto;shape-rendering:auto;text-rendering:auto;enable-background:accumulate"
       id="rect4964-9-8-2-2"
       width="42.519684"
       height="42.519684"
       x="-166.64796"
       y="-841.13019"
       transform="scale(1,-1)" />
    <rect
       style="color:#000000;clip-rule:nonzero;display:inline;overflow:visible;visibility:visible;opacity:1;isolation:auto;mix-blend-mode:normal;color-interpolation:sRGB;color-interpolation-filters:linearRGB;solid-color:#000000;solid-opacity:1;fill:none;fill-opacity:1;fill-rule:nonzero;stroke:#000000;stroke-width:0.29055119;stroke-linecap:round;stroke-linejoin:miter;stroke-miterlimit:4;stroke-dasharray:none;stroke-dashoffset:0;stroke-opacity:1;color-rendering:auto;image-rendering:auto;shape-rendering:auto;text-rendering:auto;enable-background:accumulate"
       id="rect4983-5-15-4-1"
       width="3.5433071"
       height="10.629921"
       x="-170.114"
       y="-824.93427"
       transform="scale(1,-1)" />
    <rect
       style="color:#000000;clip-rule:nonzero;display:inline;overflow:visible;visibility:visible;opacity:1;isolation:auto;mix-blend-mode:normal;color-interpolation:sRGB;color-interpolation-filters:linearRGB;solid-color:#000000;solid-opacity:1;fill:none;fill-opacity:1;fill-rule:nonzero;stroke:#000000;stroke-width:0.53886414;stroke-linecap:round;stroke-linejoin:miter;stroke-miterlimit:4;stroke-dasharray:none;stroke-dashoffset:0;stroke-opacity:1;color-rendering:auto;image-rendering:auto;shape-rendering:auto;text-rendering:auto;enable-background:accumulate"
       id="rect5047-2"
       width="38.830822"
       height="4.0036554"
       x="-175.80907"
       y="850.64417" />
    <rect
       style="color:#000000;clip-rule:nonzero;display:inline;overflow:visible;visibility:visible;opacity:1;isolation:auto;mix-blend-mode:normal;color-interpolation:sRGB;color-interpolation-filters:linearRGB;solid-color:#000000;solid-opacity:1;fill:none;fill-opacity:1;fill-rule:nonzero;stroke:#000000;stroke-width:0.25221881;stroke-linecap:round;stroke-linejoin:miter;stroke-miterlimit:4;stroke-dasharray:none;stroke-dashoffset:0;stroke-opacity:1;color-rendering:auto;image-rendering:auto;shape-rendering:auto;text-rendering:auto;enable-background:accumulate"
       id="rect4870-4-7-8"
       width="78.486221"
       height="5.0627418"
       x="-297.08392"
       y="850.10175" />
    <rect
       style="color:#000000;clip-rule:nonzero;display:inline;overflow:visible;visibility:visible;opacity:1;isolation:auto;mix-blend-mode:normal;color-interpolation:sRGB;color-interpolation-filters:linearRGB;solid-color:#000000;solid-opacity:1;fill:none;fill-opacity:1;fill-rule:nonzero;stroke:#000000;stroke-width:0.61423528;stroke-linecap:round;stroke-linejoin:miter;stroke-miterlimit:4;stroke-dasharray:none;stroke-dashoffset:0;stroke-opacity:1;color-rendering:auto;image-rendering:auto;shape-rendering:auto;text-rendering:auto;enable-background:accumulate"
       id="rect4868-6-3"
       width="4.7007256"
       height="190.98395"
       x="-184.06227"
       y="762.07843" />
    <rect
       style="color:#000000;clip-rule:nonzero;display:inline;overflow:visible;visibility:visible;opacity:1;isolation:auto;mix-blend-mode:normal;color-interpolation:sRGB;color-interpolation-filters:linearRGB;solid-color:#000000;solid-opacity:1;fill:none;fill-opacity:1;fill-rule:nonzero;stroke:#000000;stroke-width:0.70877868;stroke-linecap:round;stroke-linejoin:miter;stroke-miterlimit:4;stroke-dasharray:none;stroke-dashoffset:0;stroke-opacity:1;color-rendering:auto;image-rendering:auto;shape-rendering:auto;text-rendering:auto;enable-background:accumulate"
       id="rect5047-9-9-7-2-1-9"
       width="70.157364"
       height="3.8337409"
       x="-952.94086"
       y="-183.69809"
       transform="matrix(0,-1,1,0,0,0)" />
    <rect
       style="color:#000000;clip-rule:nonzero;display:inline;overflow:visible;visibility:visible;opacity:1;isolation:auto;mix-blend-mode:normal;color-interpolation:sRGB;color-interpolation-filters:linearRGB;solid-color:#000000;solid-opacity:1;fill:none;fill-opacity:1;fill-rule:nonzero;stroke:#000000;stroke-width:0.3675676;stroke-linecap:round;stroke-linejoin:miter;stroke-miterlimit:4;stroke-dasharray:none;stroke-dashoffset:0;stroke-opacity:1;color-rendering:auto;image-rendering:auto;shape-rendering:auto;text-rendering:auto;enable-background:accumulate"
       id="rect5404-8"
       width="191.015"
       height="276.01038"
       x="-369.81088"
       y="395.50018" />
    <rect
       style="color:#000000;clip-rule:nonzero;display:inline;overflow:visible;visibility:visible;opacity:1;isolation:auto;mix-blend-mode:normal;color-interpolation:sRGB;color-interpolation-filters:linearRGB;solid-color:#000000;solid-opacity:1;fill:none;fill-opacity:1;fill-rule:nonzero;stroke:#000000;stroke-width:0.45215636;stroke-linecap:round;stroke-linejoin:miter;stroke-miterlimit:4;stroke-dasharray:none;stroke-dashoffset:0;stroke-opacity:1;color-rendering:auto;image-rendering:auto;shape-rendering:auto;text-rendering:auto;enable-background:accumulate"
       id="rect5872-4"
       width="78.287216"
       height="275.83749"
       x="-140.63028"
       y="-673.19843"
       transform="scale(1,-1)" />
    <rect
       style="color:#000000;clip-rule:nonzero;display:inline;overflow:visible;visibility:visible;opacity:1;isolation:auto;mix-blend-mode:normal;color-interpolation:sRGB;color-interpolation-filters:linearRGB;solid-color:#000000;solid-opacity:1;fill:none;fill-opacity:1;fill-rule:nonzero;stroke:#000000;stroke-width:0.50123864;stroke-linecap:round;stroke-linejoin:miter;stroke-miterlimit:4;stroke-dasharray:none;stroke-dashoffset:0;stroke-opacity:1;color-rendering:auto;image-rendering:auto;shape-rendering:auto;text-rendering:auto;enable-background:accumulate"
       id="rect5904-4-0"
       width="38.868446"
       height="13.671989"
       x="-140.8058"
       y="397.21652" />
    <rect
       style="color:#000000;clip-rule:nonzero;display:inline;overflow:visible;visibility:visible;opacity:1;isolation:auto;mix-blend-mode:normal;color-interpolation:sRGB;color-interpolation-filters:linearRGB;solid-color:#000000;solid-opacity:1;fill:none;fill-opacity:1;fill-rule:nonzero;stroke:#000000;stroke-width:0.50123864;stroke-linecap:round;stroke-linejoin:miter;stroke-miterlimit:4;stroke-dasharray:none;stroke-dashoffset:0;stroke-opacity:1;color-rendering:auto;image-rendering:auto;shape-rendering:auto;text-rendering:auto;enable-background:accumulate"
       id="rect5904-4-0-7"
       width="38.868446"
       height="13.671989"
       x="-101.26741"
       y="659.58466" />
    <rect
       style="color:#000000;clip-rule:nonzero;display:inline;overflow:visible;visibility:visible;opacity:1;isolation:auto;mix-blend-mode:normal;color-interpolation:sRGB;color-interpolation-filters:linearRGB;solid-color:#000000;solid-opacity:1;fill:none;fill-opacity:1;fill-rule:nonzero;stroke:#000000;stroke-width:0.70877868;stroke-linecap:round;stroke-linejoin:miter;stroke-miterlimit:4;stroke-dasharray:none;stroke-dashoffset:0;stroke-opacity:1;color-rendering:auto;image-rendering:auto;shape-rendering:auto;text-rendering:auto;enable-background:accumulate"
       id="rect5047-9-9-7-2-1-9-4"
       width="70.157364"
       height="3.8337409"
       x="-830.58026"
       y="-215.33784"
       transform="matrix(0,-1,1,0,0,0)" />
    <path
       d="m 546.96094,1369.9469 38.86844,0 0,13.672 -38.86844,0 z m -39.53839,-262.3682 38.86844,0 0,13.672 -38.86844,0 z m 0.17553,275.982 78.28722,0 0,-275.8375 -78.28722,0 z"
       style="color:#000000;clip-rule:nonzero;display:inline;overflow:visible;visibility:visible;opacity:1;isolation:auto;mix-blend-mode:normal;color-interpolation:sRGB;color-interpolation-filters:linearRGB;solid-color:#000000;solid-opacity:1;fill:none;fill-opacity:1;fill-rule:nonzero;stroke:#000000;stroke-width:0.50123864;stroke-linecap:round;stroke-linejoin:miter;stroke-miterlimit:4;stroke-dasharray:none;stroke-dashoffset:0;stroke-opacity:1;color-rendering:auto;image-rendering:auto;shape-rendering:auto;text-rendering:auto;enable-background:accumulate"
       id="rect5904-4-0-7-9"
       inkscape:connector-curvature="0" />
    <rect
       style="color:#000000;clip-rule:nonzero;display:inline;overflow:visible;visibility:visible;opacity:1;isolation:auto;mix-blend-mode:normal;color-interpolation:sRGB;color-interpolation-filters:linearRGB;solid-color:#000000;solid-opacity:1;fill:none;fill-opacity:1;fill-rule:nonzero;stroke:#000000;stroke-width:0.53886408;stroke-linecap:round;stroke-linejoin:miter;stroke-miterlimit:4;stroke-dasharray:none;stroke-dashoffset:0;stroke-opacity:1;color-rendering:auto;image-rendering:auto;shape-rendering:auto;text-rendering:auto;enable-background:accumulate"
       id="rect5047-9-9-5"
       width="38.830822"
       height="4.0036554"
       x="-296.78329"
       y="850.74835" />
    <rect
       style="color:#000000;clip-rule:nonzero;display:inline;overflow:visible;visibility:visible;opacity:1;isolation:auto;mix-blend-mode:normal;color-interpolation:sRGB;color-interpolation-filters:linearRGB;solid-color:#000000;solid-opacity:1;fill:none;fill-opacity:1;fill-rule:nonzero;stroke:#000000;stroke-width:0.51885283;stroke-linecap:round;stroke-linejoin:miter;stroke-miterlimit:4;stroke-dasharray:none;stroke-dashoffset:0;stroke-opacity:1;color-rendering:auto;image-rendering:auto;shape-rendering:auto;text-rendering:auto;enable-background:accumulate"
       id="rect5516-1-4-6-9"
       width="119.34729"
       height="13.654376"
       x="-298.29959"
       y="-671.59259"
       transform="scale(1,-1)" />
    <rect
       style="color:#000000;clip-rule:nonzero;display:inline;overflow:visible;visibility:visible;opacity:1;isolation:auto;mix-blend-mode:normal;color-interpolation:sRGB;color-interpolation-filters:linearRGB;solid-color:#000000;solid-opacity:1;fill:none;fill-opacity:1;fill-rule:nonzero;stroke:#000000;stroke-width:0.51885283;stroke-linecap:round;stroke-linejoin:miter;stroke-miterlimit:4;stroke-dasharray:none;stroke-dashoffset:0;stroke-opacity:1;color-rendering:auto;image-rendering:auto;shape-rendering:auto;text-rendering:auto;enable-background:accumulate"
       id="rect5516-1-4-6-9-2"
       width="119.34729"
       height="13.654376"
       x="-369.50375"
       y="-409.74921"
       transform="scale(1,-1)" />
    <path
       inkscape:connector-curvature="0"
       id="path5876-4"
       d="m -195.29766,853.937 a 2.2905058,2.2905053 0 0 1 -2.29051,2.29051 2.2905058,2.2905053 0 0 1 -2.2905,-2.29051 2.2905058,2.2905053 0 0 1 2.2905,-2.2905 2.2905058,2.2905053 0 0 1 2.29051,2.2905 z"
       style="color:#000000;clip-rule:nonzero;display:inline;overflow:visible;visibility:visible;opacity:1;isolation:auto;mix-blend-mode:normal;color-interpolation:sRGB;color-interpolation-filters:linearRGB;solid-color:#000000;solid-opacity:1;fill:none;fill-opacity:1;fill-rule:nonzero;stroke:#000000;stroke-width:0.06260715;stroke-linecap:round;stroke-linejoin:miter;stroke-miterlimit:4;stroke-dasharray:none;stroke-dashoffset:0;stroke-opacity:1;color-rendering:auto;image-rendering:auto;shape-rendering:auto;text-rendering:auto;enable-background:accumulate" />
    <path
       id="path5876-4-7"
       style="color:#000000;clip-rule:nonzero;display:inline;overflow:visible;visibility:visible;opacity:1;isolation:auto;mix-blend-mode:normal;color-interpolation:sRGB;color-interpolation-filters:linearRGB;solid-color:#000000;solid-opacity:1;fill:none;fill-opacity:1;fill-rule:nonzero;stroke:#000000;stroke-width:0.77244091;stroke-linecap:round;stroke-linejoin:miter;stroke-miterlimit:4;stroke-dasharray:none;stroke-dashoffset:0;stroke-opacity:1;color-rendering:auto;image-rendering:auto;shape-rendering:auto;text-rendering:auto;enable-background:accumulate"
       d="m 745.45028,1258.5575 a 2.2905058,2.2905053 0 0 1 -2.29051,2.2905 2.2905058,2.2905053 0 0 1 -2.2905,-2.2905 2.2905058,2.2905053 0 0 1 2.2905,-2.2905 2.2905058,2.2905053 0 0 1 2.29051,2.2905 z m -101.48564,-3.1886 38.83083,0 0,4.0037 -38.83083,0 z m 81.44547,-20.1681 0,-70.1574 3.83374,0 0,70.1574 z m 31.63977,122.3606 0,-70.1574 3.83374,0 0,70.1574 z m 7.88898,-102.2967 38.83082,0 0,4.0037 -38.83082,0 z m 5.69506,-25.7099 3.54331,0 0,-10.6299 -3.54331,0 z m -0.80456,67.5241 3.54331,0 0,-10.63 -3.54331,0 z m -56.73926,-10.2741 3.54331,0 0,10.6299 -3.54331,0 z m -0.13153,-71.4 3.54331,0 0,10.6299 -3.54331,0 z m 130.96764,43.8465 a 100.8028,100.80277 0 0 1 -100.80278,100.8028 100.8028,100.80277 0 0 1 -100.8028,-100.8028 100.8028,100.80277 0 0 1 100.8028,-100.8028 100.8028,100.80277 0 0 1 100.80278,100.8028 z"
       inkscape:connector-curvature="0" />
    <path
       id="path5876-4-7-5"
       style="color:#000000;clip-rule:nonzero;display:inline;overflow:visible;visibility:visible;opacity:1;isolation:auto;mix-blend-mode:normal;color-interpolation:sRGB;color-interpolation-filters:linearRGB;solid-color:#000000;solid-opacity:1;fill:none;fill-opacity:1;fill-rule:nonzero;stroke:#000000;stroke-width:0.77244091;stroke-linecap:round;stroke-linejoin:miter;stroke-miterlimit:4;stroke-dasharray:none;stroke-dashoffset:0;stroke-opacity:1;color-rendering:auto;image-rendering:auto;shape-rendering:auto;text-rendering:auto;enable-background:accumulate"
       d="m 818.76369,749.88786 a 2.2905058,2.2905053 0 0 0 -2.29051,-2.29051 2.2905058,2.2905053 0 0 0 -2.2905,2.29051 2.2905058,2.2905053 0 0 0 2.2905,2.2905 2.2905058,2.2905053 0 0 0 2.29051,-2.2905 z m -101.48564,3.18864 38.83083,0 0,-4.00366 -38.83083,0 z m 81.44547,20.16809 0,70.15736 3.83374,0 0,-70.15736 z m 31.63977,-122.36062 0,70.15739 3.83374,0 0,-70.15739 z m 7.88898,102.29672 38.83082,0 0,-4.00366 -38.83082,0 z m 5.69506,25.70989 3.54331,0 0,10.62993 -3.54331,0 z m -0.80456,-67.52404 3.54331,0 0,10.62992 -3.54331,0 z m -56.73926,10.27404 3.54331,0 0,-10.62992 -3.54331,0 z m -0.13153,71.40003 3.54331,0 0,-10.62992 -3.54331,0 z M 917.23962,749.19414 A 100.8028,100.80277 0 0 0 816.43684,648.39127 100.8028,100.80277 0 0 0 715.63404,749.19414 100.8028,100.80277 0 0 0 816.43684,849.99694 100.8028,100.80277 0 0 0 917.23962,749.19414 Z M 819.822,950.5874 a 2.2905058,2.2905053 0 0 1 -2.29051,2.29051 2.2905058,2.2905053 0 0 1 -2.2905,-2.29051 2.2905058,2.2905053 0 0 1 2.2905,-2.2905 2.2905058,2.2905053 0 0 1 2.29051,2.2905 z m -101.48564,-3.18864 38.83083,0 0,4.00366 -38.83083,0 z m 81.44547,-20.16809 0,-70.15736 3.83374,0 0,70.15736 z m 31.63977,122.36063 0,-70.1574 3.83374,0 0,70.1574 z m 7.88898,-102.29673 38.83082,0 0,4.00366 -38.83082,0 z m 5.69506,-25.70989 3.54331,0 0,-10.62993 -3.54331,0 z m -0.80456,67.52404 3.54331,0 0,-10.62992 -3.54331,0 z m -56.73926,-10.27404 3.54331,0 0,10.62992 -3.54331,0 z m -0.13153,-71.40003 3.54331,0 0,10.62992 -3.54331,0 z m 130.96764,43.84647 A 100.8028,100.80277 0 0 1 817.49515,1052.084 100.8028,100.80277 0 0 1 716.69235,951.28112 a 100.8028,100.80277 0 0 1 100.8028,-100.8028 100.8028,100.80277 0 0 1 100.80278,100.8028 z m 119.51447,88.29118 38.8685,0 0,13.672 -38.8685,0 z m -39.53835,-262.36825 38.86845,0 0,13.672 -38.86845,0 z m 0.17553,275.98205 78.28722,0 0,-275.83755 -78.28722,0 z m -40.11732,-13.4799 -38.86844,0 0,13.672 38.86844,0 z m 39.53839,-262.36825 -38.86844,0 0,13.672 38.86844,0 z m -0.17553,275.98205 -78.28722,0 0,-275.83755 78.28722,0 z m 39.92678,-13.7477 38.8684,0 0,13.672 -38.8684,0 z m -39.53843,-262.36825 38.86843,0 0,13.672 -38.86843,0 z m 0.17553,275.98205 78.2872,0 0,-275.83755 -78.2872,0 z m -40.11732,-13.4799 -38.86844,0 0,13.672 38.86844,0 z m 39.53839,-262.36825 -38.86844,0 0,13.672 38.86844,0 z m -0.17553,275.98205 -78.28722,0 0,-275.83755 78.28722,0 z"
       inkscape:connector-curvature="0" />
    <path
       id="rect5516-1-4-6-9-2-5"
       style="color:#000000;clip-rule:nonzero;display:inline;overflow:visible;visibility:visible;opacity:1;isolation:auto;mix-blend-mode:normal;color-interpolation:sRGB;color-interpolation-filters:linearRGB;solid-color:#000000;solid-opacity:1;fill:none;fill-opacity:1;fill-rule:nonzero;stroke:#000000;stroke-width:0.51885283;stroke-linecap:round;stroke-linejoin:miter;stroke-miterlimit:4;stroke-dasharray:none;stroke-dashoffset:0;stroke-opacity:1;color-rendering:auto;image-rendering:auto;shape-rendering:auto;text-rendering:auto;enable-background:accumulate"
       d="m 291.86678,1122.8087 119.34728,0 0,-13.6543 -119.34728,0 z m 71.20415,261.8434 119.34729,0 0,-13.6544 -119.34729,0 z m -71.51128,-276.0924 191.01499,0 0,276.0104 -191.01499,0 z"
       inkscape:connector-curvature="0" />
    <path
       id="rect5516-1-4-6-9-2-5-3"
       style="color:#000000;clip-rule:nonzero;display:inline;overflow:visible;visibility:visible;opacity:1;isolation:auto;mix-blend-mode:normal;color-interpolation:sRGB;color-interpolation-filters:linearRGB;solid-color:#000000;solid-opacity:1;fill:none;fill-opacity:1;fill-rule:nonzero;stroke:#000000;stroke-width:0.51885283;stroke-linecap:round;stroke-linejoin:miter;stroke-miterlimit:4;stroke-dasharray:none;stroke-dashoffset:0;stroke-opacity:1;color-rendering:auto;image-rendering:auto;shape-rendering:auto;text-rendering:auto;enable-background:accumulate"
       d="m 383.03936,789.06181 -119.34728,0 0,-13.6543 119.34728,0 z m -71.20415,261.84349 -119.34729,0 0,-13.6544 119.34729,0 z m 71.51128,-276.09249 -191.01499,0 0,276.01049 191.01499,0 z m -381.9442917,14.2321 119.3472817,0 0,-13.6543 -119.3472817,0 z m 71.2041497,261.84339 119.347292,0 0,-13.6544 -119.347292,0 z M 1.0950683,774.79591 l 191.0149917,0 0,276.01039 -191.0149917,0 z" />
  </g>
  <g
     gcodetools="Gcodetools orientation group"
     id="g6493">
    <g
       gcodetools="Gcodetools orientation point (2 points)"
       id="g6495">
      <path
         style="stroke:none;fill:#000000;"
         d="m 0.0,425.196850392 2.9375,-6.343750000001 0.8125,1.90625 6.843748640396,-6.84374864039 0,0 0.6875,0.6875 -6.84375,6.84375 1.90625,0.812500000001 z z"
         gcodetools="Gcodetools orientation point arrow"
         id="path6497" />
      <text
         y="415.196850392"
         x="10.0"
         style="font-size:10px;font-style:normal;font-variant:normal;font-weight:normal;font-stretch:normal;fill:#000000;fill-opacity:1;stroke:none;"
         xml:space="preserve"
         gcodetools="Gcodetools orientation point text"
         id="text6499">(0.0; 0.0; 0.0)</text>
    </g>
    <g
       gcodetools="Gcodetools orientation point (2 points)"
       id="g6501">
      <path
         style="stroke:none;fill:#000000;"
         d="m 354.3307066,425.196850392 2.9375,-6.343750000001 0.8125,1.90625 6.843748640396,-6.84374864039 0,0 0.6875,0.6875 -6.84375,6.84375 1.90625,0.812500000001 z z"
         gcodetools="Gcodetools orientation point arrow"
         id="path6503" />
      <text
         y="415.196850392"
         x="364.3307066"
         style="font-size:10px;font-style:normal;font-variant:normal;font-weight:normal;font-stretch:normal;fill:#000000;fill-opacity:1;stroke:none;"
         xml:space="preserve"
         gcodetools="Gcodetools orientation point text"
         id="text6505">(100.0; 0.0; 0.0)</text>
    </g>
  </g>
  <defs
     id="defs6507">
    <marker
       refY="-2.41063"
       refX="-8"
       style="overflow:visible"
       id="DrawCurveMarker"
       orient="auto">
      <path
         style="fill:#000044; fill-rule:evenodd;stroke-width:0.62500000;stroke-linejoin:round;"
         d="m -6.55552,-2.41063 0,0 L -13.11104,0 c 1.0473,-1.42323 1.04126,-3.37047 0,-4.82126"
         id="path6721" />
    </marker>
  </defs>
  <defs
     id="defs6512">
    <marker
       refY="-2.41063"
       refX="8"
       style="overflow:visible"
       id="DrawCurveMarker_r"
       orient="auto">
      <path
         style="fill:#000044; fill-rule:evenodd;stroke-width:0.62500000;stroke-linejoin:round;"
         d="m 6.55552,-2.41063 0,0 L 13.11104,0 c -1.0473,-1.42323 -1.04126,-3.37047 0,-4.82126"
         id="path6515" />
    </marker>
  </defs>
</svg>
